{
  "accessors": [
    {
      "bufferView": 2,
      "componentType": 5126,
      "count": 3867,
      "max": [
        414.19692993164062,
        60.5,
        129
      ],
      "min": [
        -394,
        -60.5,
        -152.56857299804688
      ],
      "type": "VEC3"
    },
    {
      "bufferView": 2,
      "byteOffset": 46404,
      "componentType": 5126,
      "count": 3867,
      "max": [
        0.99786078929901123,
        1,
        0.99786078929901123
      ],
      "min": [
        -0.99786078929901123,
        -1,
        -0.99786078929901123
      ],
      "type": "VEC3"
    },
    {
      "bufferView": 1,
      "componentType": 5126,
      "count": 3867,
      "max": [
        1,
        1
      ],
      "min": [
        0,
        0
      ],
      "type": "VEC2"
    },
    {
      "bufferView": 0,
      "componentType": 5125,
      "count": 20580,
      "max": [
        3866
      ],
      "min": [
        0
      ],
      "type": "SCALAR"
    }
  ],
  "asset": {
    "extras": {
      "author": "Khairulddin.Joha (https://sketchfab.com/Khairulddin.Joha)",
      "license": "CC-BY-4.0 (http://creativecommons.org/licenses/by/4.0/)",
      "source": "https://sketchfab.com/3d-models/speech-bubble-01-b286a2bb0f7341b294124f71cca36bd7",
      "title": "Speech Bubble 01"
    },
    "generator": "Sketchfab-10.6.0",
    "version": "2.0"
  },
  "bufferViews": [
    {
      "buffer": 0,
      "byteLength": 82320,
      "byteOffset": 0,
      "name": "floatBufferViews",
      "target": 34963
    },
    {
      "buffer": 0,
      "byteLength": 30936,
      "byteOffset": 82320,
      "byteStride": 8,
      "name": "floatBufferViews",
      "target": 34962
    },
    {
      "buffer": 0,
      "byteLength": 92808,
      "byteOffset": 113256,
      "byteStride": 12,
      "name": "floatBufferViews",
      "target": 34962
    }
  ],
  "buffers": [
    {
      "byteLength": 206064,
      "uri": "scene.bin"
    }
  ],
  "materials": [
    {
      "doubleSided": true,
      "name": "default",
      "pbrMetallicRoughness": {
        "baseColorFactor": [
          1,
          1,
          1,
          1
        ],
        "metallicFactor": 0,
        "roughnessFactor": 0.59999999999999998
      }
    }
  ],
  "meshes": [
    {
      "primitives": [
        {
          "attributes": {
            "NORMAL": 1,
            "POSITION": 0,
            "TEXCOORD_0": 2
          },
          "indices": 3,
          "material": 0,
          "mode": 4
        }
      ]
    }
  ],
  "nodes": [
    {
      "children": [
        1
      ],
      "name": "RootNode (gltf orientation matrix)",
      "rotation": [
        -0.70710678118654746,
        -0,
        -0,
        0.70710678118654757
      ]
    },
    {
      "children": [
        2
      ],
      "matrix": [
        1,
        -1.7853747624282703e-32,
        1.6081226229577292e-16,
        0,
        -8.0068364242718248e-33,
        1,
        1.6081226229577292e-16,
        0,
        -1.6081226229577292e-16,
        -1.6081226229577292e-16,
        1,
        0,
        -1.7763568394002505e-15,
        -1.8951354225607737e-15,
        -1.7763568394002505e-15,
        1
      ],
      "name": "RootNode (model correction matrix)"
    },
    {
      "children": [
        3
      ],
      "name": "825b925052bc496eaf9d8d8170a39d0a.obj.cleaner.materialmerger.gles"
    },
    {
      "mesh": 0,
      "name": ""
    }
  ],
  "scene": 0,
  "scenes": [
    {
      "name": "OSG_Scene",
      "nodes": [
        0
      ]
    }
  ]
}

